<?xml version="1.0" standalone="no"?>
<!DOCTYPE svg PUBLIC "-//W3C//DTD SVG 20010904//EN"
 "http://www.w3.org/TR/2001/REC-SVG-20010904/DTD/svg10.dtd">
<svg version="1.0" xmlns="http://www.w3.org/2000/svg"
 width="300.000000pt" height="300.000000pt" viewBox="0 0 300.000000 300.000000"
 preserveAspectRatio="xMidYMid meet">
<metadata>
Created by potrace 1.11, written by Peter Selinger 2001-2013
</metadata>
<g transform="translate(0.000000,300.000000) scale(0.100000,-0.100000)"
fill="#000000" stroke="none">
<path d="M1335 2969 c-328 -37 -633 -186 -876 -428 -219 -219 -350 -466 -411
-774 -31 -158 -31 -386 0 -544 131 -661 657 -1139 1325 -1204 660 -64 1299
352 1521 990 58 166 80 300 80 486 0 186 -22 320 -80 486 -227 652 -876 1063
-1559 988z m-25 -707 c41 -11 96 -29 122 -41 l47 -20 -31 -93 c-17 -51 -31
-94 -32 -95 -1 -1 -31 9 -67 22 -151 54 -365 59 -466 10 -102 -50 -141 -160
-91 -255 36 -67 105 -109 275 -170 82 -29 182 -70 224 -91 130 -65 226 -169
255 -278 11 -38 13 46 13 487 l1 532 480 0 480 0 0 -110 0 -110 -360 0 -360 0
0 -220 0 -220 335 0 335 0 0 -110 0 -110 -335 0 -335 0 0 -335 0 -335 -120 0
-120 0 -1 173 c0 170 0 171 -15 117 -40 -148 -158 -251 -341 -297 -51 -13
-110 -17 -233 -17 -140 0 -178 3 -250 22 -108 29 -194 68 -187 84 2 7 17 52
32 100 l29 87 37 -19 c84 -43 197 -64 339 -64 117 0 143 3 193 23 31 12 71 34
89 49 90 76 89 229 -2 305 -48 41 -107 68 -275 127 -169 59 -209 77 -279 128
-161 117 -212 335 -122 518 64 128 174 198 361 228 71 11 301 -3 375 -22z"/>
</g>
</svg>
